<svg xmlns="http://www.w3.org/2000/svg" viewBox="0 0 512 512">
  <rect width="512" height="512" rx="96" fill="#1E3A2F"/>
  <g transform="translate(256 256)">
    <!-- Leaf body -->
    <path d="M -120 80 C -120 -40, -40 -140, 120 -120 C 140 -20, 80 100, -40 130 C -80 140, -120 120, -120 80 Z"
          fill="#F5F1E8"/>
    <!-- Central vein -->
    <path d="M -100 95 Q 0 20, 115 -105"
          stroke="#1E3A2F" stroke-width="5" fill="none" stroke-linecap="round"/>
    <!-- Side veins -->
    <path d="M -60 90 Q -30 70, 10 60" stroke="#1E3A2F" stroke-width="3" fill="none" stroke-linecap="round" opacity="0.7"/>
    <path d="M -30 60 Q 10 40, 50 25"  stroke="#1E3A2F" stroke-width="3" fill="none" stroke-linecap="round" opacity="0.7"/>
    <path d="M  10 30 Q 50 10, 85 -15" stroke="#1E3A2F" stroke-width="3" fill="none" stroke-linecap="round" opacity="0.7"/>
    <path d="M  45 0  Q 75 -20, 100 -50" stroke="#1E3A2F" stroke-width="3" fill="none" stroke-linecap="round" opacity="0.7"/>
  </g>
  <!-- Brass underline -->
  <rect x="96" y="432" width="320" height="6" rx="3" fill="#B8935A"/>
</svg>
